<mxfile host="app.diagrams.net" modified="2022-12-05T19:50:01.730Z" agent="5.0 (Macintosh; Intel Mac OS X 10_15_7) AppleWebKit/537.36 (KHTML, like Gecko) Chrome/107.0.0.0 Safari/537.36" etag="8bg_CcBxKlBrbR2b5hCe" version="20.6.0" type="github">
  <diagram id="eiD4m3i2ZlUk3YPejtXA" name="PÃ¡gina-1">
    <mxGraphModel dx="766" dy="346" grid="1" gridSize="10" guides="1" tooltips="1" connect="1" arrows="1" fold="1" page="1" pageScale="1" pageWidth="827" pageHeight="1169" math="0" shadow="0">
      <root>
        <mxCell id="0" />
        <mxCell id="1" parent="0" />
      </root>
    </mxGraphModel>
  </diagram>
</mxfile>
